g polySurface46
v 0.1279322 -0.08172026 -0.0738617
v 0.1279322 0.1271922 -0.0738617
v 0.0738617 0.1271922 -0.1279322
v 0.0738617 -0.08172026 -0.1279322
v 0 0.1271922 -0.1477234
v 0 -0.08172026 -0.1477234
v -0.0738617 0.1271922 -0.1279322
v -0.0738617 -0.08172026 -0.1279322
v -0.1279322 0.1271922 -0.0738617
v -0.1279322 -0.08172026 -0.0738617
v -0.1477234 0.1271922 0
v -0.1477234 -0.08172026 0
v -0.1279322 0.1271922 0.0738617
v -0.1279322 -0.08172026 0.0738617
v -0.0738617 0.1271922 0.1279322
v -0.0738617 -0.08172026 0.1279322
v 0 0.1271922 0.1477234
v 0 -0.08172026 0.1477234
v 0.0738617 0.1271922 0.1279322
v 0.0738617 -0.08172026 0.1279322
v 0.1279322 0.1271922 0.0738617
v 0.1279322 -0.08172026 0.0738617
v 0.1477234 0.1271922 0
v 0.1477234 -0.08172026 0
v 0.1279322 0.1271922 -0.0738617
v 0.1279322 -0.08172026 -0.0738617
v -0.0738617 0.1271922 -0.1279322
v 0 0.1271922 -0.1477234
v 0.0738617 0.1271922 -0.1279322
v -0.1279322 0.1271922 -0.0738617
v 0.1279322 0.1271922 -0.0738617
v -0.1477234 0.1271922 0
v 0.1477234 0.1271922 0
v -0.1279322 0.1271922 0.0738617
v 0.1279322 0.1271922 0.0738617
v -0.0738617 0.1271922 0.1279322
v 0.0738617 0.1271922 0.1279322
v 0 0.1271922 0.1477234
v -0.004934801 0.02401846 0.09146514
v -0.004934801 0.04217413 0.08551621
v 0.7446315 0.04217413 0.08551621
v 0.7446315 0.02401846 0.09146514
v -0.004934801 0.04217413 0.08551621
v -0.004934801 0.001099556 -0.03984
v 0.7446315 0.001099556 -0.03984
v 0.7446315 0.04217413 0.08551621
v -0.004934801 0.001099556 -0.03984
v -0.004934801 -0.01705612 -0.03389106
v 0.7446315 -0.01705612 -0.03389106
v 0.7446315 0.001099556 -0.03984
v 0.7446315 0.02401846 0.09146514
v 0.7446315 0.04217413 0.08551621
v 0.7446315 0.001099556 -0.03984
v 0.7446315 -0.01705612 -0.03389106
v 0.0414589 0.02401846 0.08167854
v 0.03848445 0.04217413 0.07652659
v 0.687628 0.04217413 -0.2982566
v 0.6906024 0.02401846 -0.2931046
v 0.03848445 0.04217413 0.07652659
v -0.02419365 0.001099556 -0.03203505
v 0.6249499 0.001099556 -0.4068182
v 0.687628 0.04217413 -0.2982566
v -0.02419365 0.001099556 -0.03203505
v -0.0212192 -0.01705612 -0.02688309
v 0.6279244 -0.01705612 -0.4016663
v 0.6249499 0.001099556 -0.4068182
v 0.6906024 0.02401846 -0.2931046
v 0.687628 0.04217413 -0.2982566
v 0.6249499 0.001099556 -0.4068182
v 0.6279244 -0.01705612 -0.4016663
v 0.07674374 0.02401846 0.05000622
v 0.07159179 0.04217413 0.04703177
v 0.446375 0.04217413 -0.6021118
v 0.4515269 0.02401846 -0.5991373
v 0.07159179 0.04217413 0.04703177
v -0.03696985 0.001099556 -0.01564633
v 0.3378133 0.001099556 -0.6647899
v 0.446375 0.04217413 -0.6021118
v -0.03696985 0.001099556 -0.01564633
v -0.03181789 -0.01705612 -0.01267187
v 0.3429653 -0.01705612 -0.6618153
v 0.3378133 0.001099556 -0.6647899
v 0.4515269 0.02401846 -0.5991373
v 0.446375 0.04217413 -0.6021118
v 0.3378133 0.001099556 -0.6647899
v 0.3429653 -0.01705612 -0.6618153
v 0.09146514 0.02401846 0.004934801
v 0.08551621 0.04217413 0.004934801
v 0.08551621 0.04217413 -0.7446315
v 0.09146514 0.02401846 -0.7446315
v 0.08551621 0.04217413 0.004934801
v -0.03984 0.001099556 0.004934801
v -0.03984 0.001099556 -0.7446315
v 0.08551621 0.04217413 -0.7446315
v -0.03984 0.001099556 0.004934801
v -0.03389106 -0.01705612 0.004934801
v -0.03389106 -0.01705612 -0.7446315
v -0.03984 0.001099556 -0.7446315
v 0.09146514 0.02401846 -0.7446315
v 0.08551621 0.04217413 -0.7446315
v -0.03984 0.001099556 -0.7446315
v -0.03389106 -0.01705612 -0.7446315
v 0.08167854 0.02401846 -0.0414589
v 0.07652659 0.04217413 -0.03848445
v -0.2982566 0.04217413 -0.687628
v -0.2931046 0.02401846 -0.6906024
v 0.07652659 0.04217413 -0.03848445
v -0.03203505 0.001099556 0.02419365
v -0.4068182 0.001099556 -0.6249499
v -0.2982566 0.04217413 -0.687628
v -0.03203505 0.001099556 0.02419365
v -0.02688309 -0.01705612 0.0212192
v -0.4016663 -0.01705612 -0.6279244
v -0.4068182 0.001099556 -0.6249499
v -0.2931046 0.02401846 -0.6906024
v -0.2982566 0.04217413 -0.687628
v -0.4068182 0.001099556 -0.6249499
v -0.4016663 -0.01705612 -0.6279244
v 0.05000622 0.02401846 -0.07674374
v 0.04703177 0.04217413 -0.07159179
v -0.6021118 0.04217413 -0.446375
v -0.5991373 0.02401846 -0.4515269
v 0.04703177 0.04217413 -0.07159179
v -0.01564633 0.001099556 0.03696985
v -0.6647899 0.001099556 -0.3378133
v -0.6021118 0.04217413 -0.446375
v -0.01564633 0.001099556 0.03696985
v -0.01267187 -0.01705612 0.03181789
v -0.6618153 -0.01705612 -0.3429653
v -0.6647899 0.001099556 -0.3378133
v -0.5991373 0.02401846 -0.4515269
v -0.6021118 0.04217413 -0.446375
v -0.6647899 0.001099556 -0.3378133
v -0.6618153 -0.01705612 -0.3429653
v 0.004934801 0.02401846 -0.09146514
v 0.004934801 0.04217413 -0.08551621
v -0.7446315 0.04217413 -0.08551621
v -0.7446315 0.02401846 -0.09146514
v 0.004934801 0.04217413 -0.08551621
v 0.004934801 0.001099556 0.03984
v -0.7446315 0.001099556 0.03984
v -0.7446315 0.04217413 -0.08551621
v 0.004934801 0.001099556 0.03984
v 0.004934801 -0.01705612 0.03389106
v -0.7446315 -0.01705612 0.03389106
v -0.7446315 0.001099556 0.03984
v -0.7446315 0.02401846 -0.09146514
v -0.7446315 0.04217413 -0.08551621
v -0.7446315 0.001099556 0.03984
v -0.7446315 -0.01705612 0.03389106
v -0.0414589 0.02401846 -0.08167854
v -0.03848445 0.04217413 -0.07652659
v -0.687628 0.04217413 0.2982566
v -0.6906024 0.02401846 0.2931046
v -0.03848445 0.04217413 -0.07652659
v 0.02419365 0.001099556 0.03203505
v -0.6249499 0.001099556 0.4068182
v -0.687628 0.04217413 0.2982566
v 0.02419365 0.001099556 0.03203505
v 0.0212192 -0.01705612 0.02688309
v -0.6279244 -0.01705612 0.4016663
v -0.6249499 0.001099556 0.4068182
v -0.6906024 0.02401846 0.2931046
v -0.687628 0.04217413 0.2982566
v -0.6249499 0.001099556 0.4068182
v -0.6279244 -0.01705612 0.4016663
v -0.07674374 0.02401846 -0.05000622
v -0.07159179 0.04217413 -0.04703177
v -0.446375 0.04217413 0.6021118
v -0.4515269 0.02401846 0.5991373
v -0.07159179 0.04217413 -0.04703177
v 0.03696985 0.001099556 0.01564633
v -0.3378133 0.001099556 0.6647899
v -0.446375 0.04217413 0.6021118
v 0.03696985 0.001099556 0.01564633
v 0.03181789 -0.01705612 0.01267187
v -0.3429653 -0.01705612 0.6618153
v -0.3378133 0.001099556 0.6647899
v -0.4515269 0.02401846 0.5991373
v -0.446375 0.04217413 0.6021118
v -0.3378133 0.001099556 0.6647899
v -0.3429653 -0.01705612 0.6618153
v -0.09146514 0.02401846 -0.004934801
v -0.08551621 0.04217413 -0.004934801
v -0.08551621 0.04217413 0.7446315
v -0.09146514 0.02401846 0.7446315
v -0.08551621 0.04217413 -0.004934801
v 0.03984 0.001099556 -0.004934801
v 0.03984 0.001099556 0.7446315
v -0.08551621 0.04217413 0.7446315
v 0.03984 0.001099556 -0.004934801
v 0.03389106 -0.01705612 -0.004934801
v 0.03389106 -0.01705612 0.7446315
v 0.03984 0.001099556 0.7446315
v -0.09146514 0.02401846 0.7446315
v -0.08551621 0.04217413 0.7446315
v 0.03984 0.001099556 0.7446315
v 0.03389106 -0.01705612 0.7446315
v -0.08167854 0.02401846 0.0414589
v -0.07652659 0.04217413 0.03848445
v 0.2982566 0.04217413 0.687628
v 0.2931046 0.02401846 0.6906024
v -0.07652659 0.04217413 0.03848445
v 0.03203505 0.001099556 -0.02419365
v 0.4068182 0.001099556 0.6249499
v 0.2982566 0.04217413 0.687628
v 0.03203505 0.001099556 -0.02419365
v 0.02688309 -0.01705612 -0.0212192
v 0.4016663 -0.01705612 0.6279244
v 0.4068182 0.001099556 0.6249499
v 0.2931046 0.02401846 0.6906024
v 0.2982566 0.04217413 0.687628
v 0.4068182 0.001099556 0.6249499
v 0.4016663 -0.01705612 0.6279244
v -0.05000622 0.02401846 0.07674374
v -0.04703177 0.04217413 0.07159179
v 0.6021118 0.04217413 0.446375
v 0.5991373 0.02401846 0.4515269
v -0.04703177 0.04217413 0.07159179
v 0.01564633 0.001099556 -0.03696985
v 0.6647899 0.001099556 0.3378133
v 0.6021118 0.04217413 0.446375
v 0.01564633 0.001099556 -0.03696985
v 0.01267187 -0.01705612 -0.03181789
v 0.6618153 -0.01705612 0.3429653
v 0.6647899 0.001099556 0.3378133
v 0.5991373 0.02401846 0.4515269
v 0.6021118 0.04217413 0.446375
v 0.6647899 0.001099556 0.3378133
v 0.6618153 -0.01705612 0.3429653
vt 0.9443569 0.8125964
vt 0.999751 0.8125964
vt 0.9997511 0.794265
vt 0.9443569 0.794265
vt 0.999751 0.7759336
vt 0.9443569 0.7759336
vt 0.9997509 0.7576022
vt 0.9443569 0.7576022
vt 0.999751 0.7392707
vt 0.9443569 0.7392707
vt 0.9997511 0.7209394
vt 0.9443569 0.7209393
vt 0.999751 0.7026079
vt 0.9443569 0.7026079
vt 0.999751 0.6842765
vt 0.9443569 0.6842765
vt 0.999751 0.6659452
vt 0.9443569 0.6659451
vt 0.999751 0.6476137
vt 0.9443569 0.6476138
vt 0.999751 0.6292824
vt 0.9443569 0.6292823
vt 0.999751 0.6109509
vt 0.9443569 0.6109509
vt 0.999751 0.5926195
vt 0.9443569 0.5926195
vt 0.723038 0.7974083
vt 0.7585719 0.8069295
vt 0.7941058 0.7974083
vt 0.6970254 0.7713957
vt 0.8201184 0.7713957
vt 0.6875041 0.7358618
vt 0.8296396 0.7358618
vt 0.6970254 0.7003279
vt 0.8201184 0.7003279
vt 0.723038 0.6743154
vt 0.7941058 0.6743154
vt 0.7585719 0.664794
vt 0.3766823 0.9975229
vt 0.383294 0.9975229
vt 0.383294 0.7381273
vt 0.3766823 0.7381273
vt 0.383294 0.9975229
vt 0.4289443 0.9975229
vt 0.4289442 0.7381273
vt 0.383294 0.7381273
vt 0.4289443 0.9975229
vt 0.435556 0.9975229
vt 0.4355559 0.7381273
vt 0.4289442 0.7381273
vt 0.383294 0.7315156
vt 0.383294 0.7381273
vt 0.4289442 0.7381273
vt 0.4289443 0.7315156
vt 0.3766823 0.9975229
vt 0.383294 0.9975229
vt 0.383294 0.7381273
vt 0.3766823 0.7381273
vt 0.383294 0.9975229
vt 0.4289443 0.9975229
vt 0.4289442 0.7381273
vt 0.383294 0.7381273
vt 0.4289443 0.9975229
vt 0.435556 0.9975229
vt 0.4355559 0.7381273
vt 0.4289442 0.7381273
vt 0.383294 0.7315156
vt 0.383294 0.7381273
vt 0.4289442 0.7381273
vt 0.4289443 0.7315156
vt 0.3766823 0.9975229
vt 0.383294 0.9975229
vt 0.383294 0.7381273
vt 0.3766823 0.7381273
vt 0.383294 0.9975229
vt 0.4289443 0.9975229
vt 0.4289442 0.7381273
vt 0.383294 0.7381273
vt 0.4289443 0.9975229
vt 0.435556 0.9975229
vt 0.4355559 0.7381273
vt 0.4289442 0.7381273
vt 0.383294 0.7315156
vt 0.383294 0.7381273
vt 0.4289442 0.7381273
vt 0.4289443 0.7315156
vt 0.3766823 0.9975229
vt 0.383294 0.9975229
vt 0.383294 0.7381273
vt 0.3766823 0.7381273
vt 0.383294 0.9975229
vt 0.4289443 0.9975229
vt 0.4289442 0.7381273
vt 0.383294 0.7381273
vt 0.4289443 0.9975229
vt 0.435556 0.9975229
vt 0.4355559 0.7381273
vt 0.4289442 0.7381273
vt 0.383294 0.7315156
vt 0.383294 0.7381273
vt 0.4289442 0.7381273
vt 0.4289443 0.7315156
vt 0.3766823 0.9975229
vt 0.383294 0.9975229
vt 0.383294 0.7381273
vt 0.3766823 0.7381273
vt 0.383294 0.9975229
vt 0.4289443 0.9975229
vt 0.4289442 0.7381273
vt 0.383294 0.7381273
vt 0.4289443 0.9975229
vt 0.435556 0.9975229
vt 0.4355559 0.7381273
vt 0.4289442 0.7381273
vt 0.383294 0.7315156
vt 0.383294 0.7381273
vt 0.4289442 0.7381273
vt 0.4289443 0.7315156
vt 0.3766823 0.9975229
vt 0.383294 0.9975229
vt 0.383294 0.7381273
vt 0.3766823 0.7381273
vt 0.383294 0.9975229
vt 0.4289443 0.9975229
vt 0.4289442 0.7381273
vt 0.383294 0.7381273
vt 0.4289443 0.9975229
vt 0.435556 0.9975229
vt 0.4355559 0.7381273
vt 0.4289442 0.7381273
vt 0.383294 0.7315156
vt 0.383294 0.7381273
vt 0.4289442 0.7381273
vt 0.4289443 0.7315156
vt 0.3766823 0.9975229
vt 0.383294 0.9975229
vt 0.383294 0.7381273
vt 0.3766823 0.7381273
vt 0.383294 0.9975229
vt 0.4289443 0.9975229
vt 0.4289442 0.7381273
vt 0.383294 0.7381273
vt 0.4289443 0.9975229
vt 0.435556 0.9975229
vt 0.4355559 0.7381273
vt 0.4289442 0.7381273
vt 0.383294 0.7315156
vt 0.383294 0.7381273
vt 0.4289442 0.7381273
vt 0.4289443 0.7315156
vt 0.3766823 0.9975229
vt 0.383294 0.9975229
vt 0.383294 0.7381273
vt 0.3766823 0.7381273
vt 0.383294 0.9975229
vt 0.4289443 0.9975229
vt 0.4289442 0.7381273
vt 0.383294 0.7381273
vt 0.4289443 0.9975229
vt 0.435556 0.9975229
vt 0.4355559 0.7381273
vt 0.4289442 0.7381273
vt 0.383294 0.7315156
vt 0.383294 0.7381273
vt 0.4289442 0.7381273
vt 0.4289443 0.7315156
vt 0.3766823 0.9975229
vt 0.383294 0.9975229
vt 0.383294 0.7381273
vt 0.3766823 0.7381273
vt 0.383294 0.9975229
vt 0.4289443 0.9975229
vt 0.4289442 0.7381273
vt 0.383294 0.7381273
vt 0.4289443 0.9975229
vt 0.435556 0.9975229
vt 0.4355559 0.7381273
vt 0.4289442 0.7381273
vt 0.383294 0.7315156
vt 0.383294 0.7381273
vt 0.4289442 0.7381273
vt 0.4289443 0.7315156
vt 0.3766823 0.9975229
vt 0.383294 0.9975229
vt 0.383294 0.7381273
vt 0.3766823 0.7381273
vt 0.383294 0.9975229
vt 0.4289443 0.9975229
vt 0.4289442 0.7381273
vt 0.383294 0.7381273
vt 0.4289443 0.9975229
vt 0.435556 0.9975229
vt 0.4355559 0.7381273
vt 0.4289442 0.7381273
vt 0.383294 0.7315156
vt 0.383294 0.7381273
vt 0.4289442 0.7381273
vt 0.4289443 0.7315156
vt 0.3766823 0.9975229
vt 0.383294 0.9975229
vt 0.383294 0.7381273
vt 0.3766823 0.7381273
vt 0.383294 0.9975229
vt 0.4289443 0.9975229
vt 0.4289442 0.7381273
vt 0.383294 0.7381273
vt 0.4289443 0.9975229
vt 0.435556 0.9975229
vt 0.4355559 0.7381273
vt 0.4289442 0.7381273
vt 0.383294 0.7315156
vt 0.383294 0.7381273
vt 0.4289442 0.7381273
vt 0.4289443 0.7315156
vt 0.3766823 0.9975229
vt 0.383294 0.9975229
vt 0.383294 0.7381273
vt 0.3766823 0.7381273
vt 0.383294 0.9975229
vt 0.4289443 0.9975229
vt 0.4289442 0.7381273
vt 0.383294 0.7381273
vt 0.4289443 0.9975229
vt 0.435556 0.9975229
vt 0.4355559 0.7381273
vt 0.4289442 0.7381273
vt 0.383294 0.7315156
vt 0.383294 0.7381273
vt 0.4289442 0.7381273
vt 0.4289443 0.7315156
vn 0.8660254 0 -0.5000001
vn 0.8660254 0 -0.5000001
vn 0.5000001 0 -0.8660253
vn 0.5000001 0 -0.8660253
vn 0 0 -1
vn 0 0 -1
vn -0.5000001 0 -0.8660253
vn -0.5000001 0 -0.8660253
vn -0.8660254 0 -0.5000001
vn -0.8660254 0 -0.5000001
vn -1 0 0
vn -1 0 0
vn -0.8660254 0 0.5000001
vn -0.8660254 0 0.5000001
vn -0.5000001 0 0.8660253
vn -0.5000001 0 0.8660253
vn 0 0 1
vn 0 0 1
vn 0.5000001 0 0.8660253
vn 0.5000001 0 0.8660253
vn 0.8660254 0 0.5000001
vn 0.8660254 0 0.5000001
vn 1 0 0
vn 1 0 0
vn 0.8660254 0 -0.5000001
vn 0.8660254 0 -0.5000001
vn 0 1 0
vn 0 1 0
vn 0 1 0
vn 0 1 0
vn 0 1 0
vn 0 1 0
vn 0 1 0
vn 0 1 0
vn 0 1 0
vn 0 1 0
vn 0 1 0
vn 0 1 0
vn 0 0.3113737 0.9502875
vn 0 0.3113737 0.9502875
vn 0 0.3113737 0.9502875
vn 0 0.3113737 0.9502875
vn 0 0.9502874 -0.311374
vn 0 0.9502874 -0.311374
vn 0 0.9502874 -0.311374
vn 0 0.9502874 -0.311374
vn 0 -0.3113737 -0.9502875
vn 0 -0.3113737 -0.9502875
vn 0 -0.3113737 -0.9502875
vn 0 -0.3113737 -0.9502875
vn 1 0 0
vn 1 0 0
vn 1 0 0
vn 1 0 0
vn 0.4751437 0.3113734 0.8229732
vn 0.4751437 0.3113734 0.8229732
vn 0.4751437 0.3113734 0.8229732
vn 0.4751437 0.3113734 0.8229732
vn -0.155687 0.9502874 -0.2696578
vn -0.155687 0.9502874 -0.2696578
vn -0.155687 0.9502874 -0.2696578
vn -0.155687 0.9502874 -0.2696578
vn -0.4751437 -0.3113741 -0.8229731
vn -0.4751437 -0.3113741 -0.8229731
vn -0.4751437 -0.3113741 -0.8229731
vn -0.4751437 -0.3113741 -0.8229731
vn 0.8660253 0 -0.5000004
vn 0.8660253 0 -0.5000004
vn 0.8660253 0 -0.5000004
vn 0.8660253 0 -0.5000004
vn 0.8229731 0.3113741 0.4751437
vn 0.8229731 0.3113741 0.4751437
vn 0.8229731 0.3113741 0.4751437
vn 0.8229731 0.3113741 0.4751437
vn -0.2696578 0.9502874 -0.155687
vn -0.2696578 0.9502874 -0.155687
vn -0.2696578 0.9502874 -0.155687
vn -0.2696578 0.9502874 -0.155687
vn -0.8229728 -0.3113751 -0.4751435
vn -0.8229728 -0.3113751 -0.4751435
vn -0.8229728 -0.3113751 -0.4751435
vn -0.8229728 -0.3113751 -0.4751435
vn 0.4999993 0 -0.8660258
vn 0.4999993 0 -0.8660258
vn 0.4999993 0 -0.8660258
vn 0.4999993 0 -0.8660258
vn 0.9502875 0.3113738 0
vn 0.9502875 0.3113738 0
vn 0.9502875 0.3113738 0
vn 0.9502875 0.3113738 0
vn -0.3113739 0.9502874 0
vn -0.3113739 0.9502874 0
vn -0.3113739 0.9502874 0
vn -0.3113739 0.9502874 0
vn -0.9502875 -0.3113738 0
vn -0.9502875 -0.3113738 0
vn -0.9502875 -0.3113738 0
vn -0.9502875 -0.3113738 0
vn 0 0 -1
vn 0 0 -1
vn 0 0 -1
vn 0 0 -1
vn 0.8229732 0.3113732 -0.4751439
vn 0.8229732 0.3113732 -0.4751439
vn 0.8229732 0.3113732 -0.4751439
vn 0.8229732 0.3113732 -0.4751439
vn -0.2696577 0.9502874 0.155687
vn -0.2696577 0.9502874 0.155687
vn -0.2696577 0.9502874 0.155687
vn -0.2696577 0.9502874 0.155687
vn -0.822973 -0.3113743 0.4751436
vn -0.822973 -0.3113743 0.4751436
vn -0.822973 -0.3113743 0.4751436
vn -0.822973 -0.3113743 0.4751436
vn -0.5000007 0 -0.8660251
vn -0.5000007 0 -0.8660251
vn -0.5000007 0 -0.8660251
vn -0.5000007 0 -0.8660251
vn 0.475144 0.3113726 -0.8229735
vn 0.475144 0.3113726 -0.8229735
vn 0.475144 0.3113726 -0.8229735
vn 0.475144 0.3113726 -0.8229735
vn -0.155687 0.9502874 0.2696578
vn -0.155687 0.9502874 0.2696578
vn -0.155687 0.9502874 0.2696578
vn -0.155687 0.9502874 0.2696578
vn -0.4751436 -0.311375 0.8229728
vn -0.4751436 -0.311375 0.8229728
vn -0.4751436 -0.311375 0.8229728
vn -0.4751436 -0.311375 0.8229728
vn -0.866026 0 -0.4999991
vn -0.866026 0 -0.4999991
vn -0.866026 0 -0.4999991
vn -0.866026 0 -0.4999991
vn 0 0.3113737 -0.9502875
vn 0 0.3113737 -0.9502875
vn 0 0.3113737 -0.9502875
vn 0 0.3113737 -0.9502875
vn 0 0.9502874 0.311374
vn 0 0.9502874 0.311374
vn 0 0.9502874 0.311374
vn 0 0.9502874 0.311374
vn 0 -0.3113737 0.9502875
vn 0 -0.3113737 0.9502875
vn 0 -0.3113737 0.9502875
vn 0 -0.3113737 0.9502875
vn -1 0 0
vn -1 0 0
vn -1 0 0
vn -1 0 0
vn -0.4751437 0.3113734 -0.8229732
vn -0.4751437 0.3113734 -0.8229732
vn -0.4751437 0.3113734 -0.8229732
vn -0.4751437 0.3113734 -0.8229732
vn 0.155687 0.9502874 0.2696578
vn 0.155687 0.9502874 0.2696578
vn 0.155687 0.9502874 0.2696578
vn 0.155687 0.9502874 0.2696578
vn 0.4751437 -0.3113741 0.8229731
vn 0.4751437 -0.3113741 0.8229731
vn 0.4751437 -0.3113741 0.8229731
vn 0.4751437 -0.3113741 0.8229731
vn -0.8660253 0 0.5000004
vn -0.8660253 0 0.5000004
vn -0.8660253 0 0.5000004
vn -0.8660253 0 0.5000004
vn -0.8229731 0.3113741 -0.4751437
vn -0.8229731 0.3113741 -0.4751437
vn -0.8229731 0.3113741 -0.4751437
vn -0.8229731 0.3113741 -0.4751437
vn 0.2696578 0.9502874 0.155687
vn 0.2696578 0.9502874 0.155687
vn 0.2696578 0.9502874 0.155687
vn 0.2696578 0.9502874 0.155687
vn 0.8229728 -0.3113751 0.4751435
vn 0.8229728 -0.3113751 0.4751435
vn 0.8229728 -0.3113751 0.4751435
vn 0.8229728 -0.3113751 0.4751435
vn -0.4999993 0 0.8660258
vn -0.4999993 0 0.8660258
vn -0.4999993 0 0.8660258
vn -0.4999993 0 0.8660258
vn -0.9502875 0.3113738 0
vn -0.9502875 0.3113738 0
vn -0.9502875 0.3113738 0
vn -0.9502875 0.3113738 0
vn 0.3113739 0.9502874 0
vn 0.3113739 0.9502874 0
vn 0.3113739 0.9502874 0
vn 0.3113739 0.9502874 0
vn 0.9502875 -0.3113738 0
vn 0.9502875 -0.3113738 0
vn 0.9502875 -0.3113738 0
vn 0.9502875 -0.3113738 0
vn 0 0 1
vn 0 0 1
vn 0 0 1
vn 0 0 1
vn -0.8229732 0.3113732 0.4751439
vn -0.8229732 0.3113732 0.4751439
vn -0.8229732 0.3113732 0.4751439
vn -0.8229732 0.3113732 0.4751439
vn 0.2696577 0.9502874 -0.155687
vn 0.2696577 0.9502874 -0.155687
vn 0.2696577 0.9502874 -0.155687
vn 0.2696577 0.9502874 -0.155687
vn 0.822973 -0.3113743 -0.4751436
vn 0.822973 -0.3113743 -0.4751436
vn 0.822973 -0.3113743 -0.4751436
vn 0.822973 -0.3113743 -0.4751436
vn 0.5000007 0 0.8660251
vn 0.5000007 0 0.8660251
vn 0.5000007 0 0.8660251
vn 0.5000007 0 0.8660251
vn -0.475144 0.3113726 0.8229735
vn -0.475144 0.3113726 0.8229735
vn -0.475144 0.3113726 0.8229735
vn -0.475144 0.3113726 0.8229735
vn 0.155687 0.9502874 -0.2696578
vn 0.155687 0.9502874 -0.2696578
vn 0.155687 0.9502874 -0.2696578
vn 0.155687 0.9502874 -0.2696578
vn 0.4751436 -0.311375 -0.8229728
vn 0.4751436 -0.311375 -0.8229728
vn 0.4751436 -0.311375 -0.8229728
vn 0.4751436 -0.311375 -0.8229728
vn 0.866026 0 0.4999991
vn 0.866026 0 0.4999991
vn 0.866026 0 0.4999991
vn 0.866026 0 0.4999991
g polySurface46_0
f 3/3/3 2/2/2 1/1/1
f 4/4/4 3/3/3 1/1/1
f 5/5/5 3/3/3 4/4/4
f 6/6/6 5/5/5 4/4/4
f 7/7/7 5/5/5 6/6/6
f 8/8/8 7/7/7 6/6/6
f 9/9/9 7/7/7 8/8/8
f 10/10/10 9/9/9 8/8/8
f 11/11/11 9/9/9 10/10/10
f 12/12/12 11/11/11 10/10/10
f 13/13/13 11/11/11 12/12/12
f 14/14/14 13/13/13 12/12/12
f 15/15/15 13/13/13 14/14/14
f 16/16/16 15/15/15 14/14/14
f 17/17/17 15/15/15 16/16/16
f 18/18/18 17/17/17 16/16/16
f 19/19/19 17/17/17 18/18/18
f 20/20/20 19/19/19 18/18/18
f 21/21/21 19/19/19 20/20/20
f 22/22/22 21/21/21 20/20/20
f 23/23/23 21/21/21 22/22/22
f 24/24/24 23/23/23 22/22/22
f 25/25/25 23/23/23 24/24/24
f 26/26/26 25/25/25 24/24/24
f 29/29/29 28/28/28 27/27/27
f 27/27/27 30/30/30 29/29/29
f 30/30/30 31/31/31 29/29/29
f 30/30/30 32/32/32 31/31/31
f 32/32/32 33/33/33 31/31/31
f 32/32/32 34/34/34 33/33/33
f 34/34/34 35/35/35 33/33/33
f 34/34/34 36/36/36 35/35/35
f 36/36/36 37/37/37 35/35/35
f 36/36/36 38/38/38 37/37/37
f 41/41/41 40/40/40 39/39/39
f 42/42/42 41/41/41 39/39/39
f 45/45/45 44/44/44 43/43/43
f 46/46/46 45/45/45 43/43/43
f 49/49/49 48/48/48 47/47/47
f 50/50/50 49/49/49 47/47/47
f 53/53/53 52/52/52 51/51/51
f 54/54/54 53/53/53 51/51/51
f 57/57/57 56/56/56 55/55/55
f 58/58/58 57/57/57 55/55/55
f 61/61/61 60/60/60 59/59/59
f 62/62/62 61/61/61 59/59/59
f 65/65/65 64/64/64 63/63/63
f 66/66/66 65/65/65 63/63/63
f 69/69/69 68/68/68 67/67/67
f 70/70/70 69/69/69 67/67/67
f 73/73/73 72/72/72 71/71/71
f 74/74/74 73/73/73 71/71/71
f 77/77/77 76/76/76 75/75/75
f 78/78/78 77/77/77 75/75/75
f 81/81/81 80/80/80 79/79/79
f 82/82/82 81/81/81 79/79/79
f 85/85/85 84/84/84 83/83/83
f 86/86/86 85/85/85 83/83/83
f 89/89/89 88/88/88 87/87/87
f 90/90/90 89/89/89 87/87/87
f 93/93/93 92/92/92 91/91/91
f 94/94/94 93/93/93 91/91/91
f 97/97/97 96/96/96 95/95/95
f 98/98/98 97/97/97 95/95/95
f 101/101/101 100/100/100 99/99/99
f 102/102/102 101/101/101 99/99/99
f 105/105/105 104/104/104 103/103/103
f 106/106/106 105/105/105 103/103/103
f 109/109/109 108/108/108 107/107/107
f 110/110/110 109/109/109 107/107/107
f 113/113/113 112/112/112 111/111/111
f 114/114/114 113/113/113 111/111/111
f 117/117/117 116/116/116 115/115/115
f 118/118/118 117/117/117 115/115/115
f 121/121/121 120/120/120 119/119/119
f 122/122/122 121/121/121 119/119/119
f 125/125/125 124/124/124 123/123/123
f 126/126/126 125/125/125 123/123/123
f 129/129/129 128/128/128 127/127/127
f 130/130/130 129/129/129 127/127/127
f 133/133/133 132/132/132 131/131/131
f 134/134/134 133/133/133 131/131/131
f 137/137/137 136/136/136 135/135/135
f 138/138/138 137/137/137 135/135/135
f 141/141/141 140/140/140 139/139/139
f 142/142/142 141/141/141 139/139/139
f 145/145/145 144/144/144 143/143/143
f 146/146/146 145/145/145 143/143/143
f 149/149/149 148/148/148 147/147/147
f 150/150/150 149/149/149 147/147/147
f 153/153/153 152/152/152 151/151/151
f 154/154/154 153/153/153 151/151/151
f 157/157/157 156/156/156 155/155/155
f 158/158/158 157/157/157 155/155/155
f 161/161/161 160/160/160 159/159/159
f 162/162/162 161/161/161 159/159/159
f 165/165/165 164/164/164 163/163/163
f 166/166/166 165/165/165 163/163/163
f 169/169/169 168/168/168 167/167/167
f 170/170/170 169/169/169 167/167/167
f 173/173/173 172/172/172 171/171/171
f 174/174/174 173/173/173 171/171/171
f 177/177/177 176/176/176 175/175/175
f 178/178/178 177/177/177 175/175/175
f 181/181/181 180/180/180 179/179/179
f 182/182/182 181/181/181 179/179/179
f 185/185/185 184/184/184 183/183/183
f 186/186/186 185/185/185 183/183/183
f 189/189/189 188/188/188 187/187/187
f 190/190/190 189/189/189 187/187/187
f 193/193/193 192/192/192 191/191/191
f 194/194/194 193/193/193 191/191/191
f 197/197/197 196/196/196 195/195/195
f 198/198/198 197/197/197 195/195/195
f 201/201/201 200/200/200 199/199/199
f 202/202/202 201/201/201 199/199/199
f 205/205/205 204/204/204 203/203/203
f 206/206/206 205/205/205 203/203/203
f 209/209/209 208/208/208 207/207/207
f 210/210/210 209/209/209 207/207/207
f 213/213/213 212/212/212 211/211/211
f 214/214/214 213/213/213 211/211/211
f 217/217/217 216/216/216 215/215/215
f 218/218/218 217/217/217 215/215/215
f 221/221/221 220/220/220 219/219/219
f 222/222/222 221/221/221 219/219/219
f 225/225/225 224/224/224 223/223/223
f 226/226/226 225/225/225 223/223/223
f 229/229/229 228/228/228 227/227/227
f 230/230/230 229/229/229 227/227/227
