g vShield
v 0 0.3055644 0.01433499
v 0 0.09639616 0.05804906
v -0.2646113 0.1527822 0.01433499
v 0 -0.09639616 0.05804906
v -2.671175E-08 -0.3055644 0.01433499
v -0.2646113 -0.1527822 0.01433499
v 0 -0.09639616 0.05804906
v -0.2646113 -0.1527822 0.01433499
v -0.2646113 0.1527822 0.01433499
v 0 0.09639616 0.05804906
v 0.2646113 -0.1527822 0.01433499
v 0 -0.09639616 0.05804906
v 0 0.09639616 0.05804906
v 0.2646113 0.1527822 0.01433499
v 0.2646113 0.1527822 0.01433499
v 0 0.09639616 0.05804906
v 0 0.3055644 0.01433499
v 0.2646113 -0.1527822 0.01433499
v -2.671175E-08 -0.3055644 0.01433499
v 0 -0.09639616 0.05804906
v 0 0.3055644 0.01433499
v 0 0.3352129 0.01433499
v 0.2902862 0.1676064 0.01433499
v 0.2646113 0.1527822 0.01433499
v -0.2646113 0.1527822 0.01433499
v -0.2902862 0.1676064 0.01433499
v 0.2902862 -0.1676064 0.01433499
v 0.2646113 -0.1527822 0.01433499
v -0.2646113 -0.1527822 0.01433499
v -0.2902862 -0.1676064 0.01433499
v -2.671175E-08 -0.3055644 0.01433499
v -2.930356E-08 -0.3352129 0.01433499
v 0 0.0947183 0.03919695
v 0 0.3042612 -0.00454658
v -0.2636742 0.1523231 -0.004562753
v -2.671175E-08 -0.3042612 -0.00454658
v 0 -0.0947183 0.03919695
v -0.2636742 -0.1523231 -0.004562753
v -0.2636742 -0.1523231 -0.004562753
v 0 -0.0947183 0.03919695
v 0 0.0947183 0.03919695
v -0.2636742 0.1523231 -0.004562753
v 0 -0.0947183 0.03919695
v 0.2636742 -0.1523231 -0.004562753
v 0.2636742 0.1523231 -0.004562753
v 0 0.0947183 0.03919695
v 0 0.0947183 0.03919695
v 0.2636742 0.1523231 -0.004562753
v 0 0.3042612 -0.00454658
v -2.671175E-08 -0.3042612 -0.00454658
v 0.2636742 -0.1523231 -0.004562753
v 0 -0.0947183 0.03919695
v 0 0.3352129 -0.004591634
v 0 0.3042612 -0.00454658
v 0.2636742 0.1523231 -0.004562753
v 0.2902862 0.1676064 -0.004591634
v -0.2902862 0.1676064 -0.004591634
v -0.2636742 0.1523231 -0.004562753
v 0.2636742 -0.1523231 -0.004562753
v 0.2902862 -0.1676064 -0.004591634
v -0.2902862 -0.1676064 -0.004591634
v -0.2636742 -0.1523231 -0.004562753
v -2.930356E-08 -0.3352129 -0.004591634
v -2.671175E-08 -0.3042612 -0.00454658
v 0 0.3352129 0.01433499
v 0 0.3352129 -0.004591634
v 0.2902862 0.1676064 -0.004591634
v 0.2902862 0.1676064 0.01433499
v 0.2902862 0.1676064 0.01433499
v 0.2902862 0.1676064 -0.004591634
v 0.2902862 -0.1676064 -0.004591634
v 0.2902862 0.1676064 0.01433499
v 0.2902862 -0.1676064 0.01433499
v 0.2902862 -0.1676064 0.01433499
v 0.2902862 -0.1676064 -0.004591634
v -2.930356E-08 -0.3352129 -0.004591634
v -2.930356E-08 -0.3352129 0.01433499
v -2.930356E-08 -0.3352129 0.01433499
v -2.930356E-08 -0.3352129 -0.004591634
v -0.2902862 -0.1676064 -0.004591634
v -0.2902862 -0.1676064 0.01433499
v -0.2902862 -0.1676064 0.01433499
v -0.2902862 -0.1676064 -0.004591634
v -0.2902862 0.1676064 -0.004591634
v -0.2902862 -0.1676064 0.01433499
v -0.2902862 0.1676064 0.01433499
v -0.2902862 0.1676064 0.01433499
v -0.2902862 0.1676064 -0.004591634
v 0 0.3352129 -0.004591634
v 0 0.3352129 0.01433499
vt 0.2988591 0.4333237
vt 0.2981926 0.6061906
vt 0.5144547 0.5594267
vt 0.2962377 0.7604145
vt 0.2955707 0.9332815
vt 0.5129216 0.8094221
vt 0.2962377 0.7604145
vt 0.5129216 0.8094221
vt 0.5144547 0.5594267
vt 0.2981926 0.6061906
vt 0.07997579 0.8071776
vt 0.2962377 0.7604145
vt 0.2981926 0.6061906
vt 0.08150915 0.5571836
vt 0.08150915 0.5571836
vt 0.2981926 0.6061906
vt 0.2988591 0.4333237
vt 0.07997579 0.8071776
vt 0.2955707 0.9332815
vt 0.2962377 0.7604145
vt 0.2988591 0.4333237
vt 0.2998244 0.406674
vt 0.0589158 0.5430031
vt 0.08150915 0.5571836
vt 0.5144547 0.5594267
vt 0.5380133 0.5469698
vt 0.05641723 0.8196344
vt 0.07997579 0.8071776
vt 0.5129216 0.8094221
vt 0.535515 0.8236026
vt 0.2955707 0.9332815
vt 0.2946053 0.9599313
vt 0.712079 0.2188841
vt 0.7125063 0.05211945
vt 0.5040254 0.1710885
vt 0.7100073 0.5315562
vt 0.7104343 0.3647917
vt 0.5029301 0.4110498
vt 0.5029301 0.4110498
vt 0.7104343 0.3647917
vt 0.712079 0.2188841
vt 0.5040254 0.1710885
vt 0.7104343 0.3647917
vt 0.9184878 0.4125871
vt 0.9195835 0.1726266
vt 0.712079 0.2188841
vt 0.712079 0.2188841
vt 0.9195835 0.1726266
vt 0.7125063 0.05211945
vt 0.7100073 0.5315562
vt 0.9184878 0.4125871
vt 0.7104343 0.3647917
vt 0.712602 0.02772892
vt 0.7125063 0.05211945
vt 0.9195835 0.1726266
vt 0.9405679 0.1607259
vt 0.4831731 0.1589927
vt 0.5040254 0.1710885
vt 0.9184878 0.4125871
vt 0.9393402 0.4246828
vt 0.4819459 0.4229506
vt 0.5029301 0.4110498
vt 0.7099115 0.5559468
vt 0.7100073 0.5315562
vt 0.2998244 0.406674
vt 0.2987396 0.3861685
vt 0.04061852 0.5336753
vt 0.0589158 0.5430031
vt 0.0589158 0.5430031
vt 0.04061852 0.5336753
vt 0.03919724 0.8308101
vt 0.0589158 0.5430031
vt 0.05641723 0.8196344
vt 0.05641723 0.8196344
vt 0.03919724 0.8308101
vt 0.2956898 0.9804365
vt 0.2946053 0.9599313
vt 0.2946053 0.9599313
vt 0.2956898 0.9804365
vt 0.5538122 0.8329306
vt 0.535515 0.8236026
vt 0.535515 0.8236026
vt 0.5538122 0.8329306
vt 0.5552337 0.5357936
vt 0.535515 0.8236026
vt 0.5380133 0.5469698
vt 0.5380133 0.5469698
vt 0.5552337 0.5357936
vt 0.2987396 0.3861685
vt 0.2998244 0.406674
vn -0.1173001 0.203158 0.9720944
vn -0.1173001 0.203158 0.9720944
vn -0.1173001 0.203158 0.9720944
vn -0.1173001 -0.203158 0.9720944
vn -0.1173001 -0.203158 0.9720944
vn -0.1173001 -0.203158 0.9720944
vn -0.1629918 0 0.9866274
vn -0.1629918 0 0.9866274
vn -0.1629918 0 0.9866274
vn -0.1629918 0 0.9866274
vn 0.1629919 0 0.9866274
vn 0.1629919 0 0.9866274
vn 0.1629919 0 0.9866274
vn 0.1629919 0 0.9866274
vn 0.1173001 0.203158 0.9720944
vn 0.1173001 0.203158 0.9720944
vn 0.1173001 0.203158 0.9720944
vn 0.1173 -0.203158 0.9720944
vn 0.1173 -0.203158 0.9720944
vn 0.1173 -0.203158 0.9720944
vn 0 0 1
vn 0 0 1
vn 0 0 1
vn 0 0 1
vn 0 0 1
vn 0 0 1
vn 0 0 1
vn 0 0 1
vn 0 0 1
vn 0 0 1
vn 0 0 1
vn 0 0 1
vn 0.1170052 -0.202948 -0.9721738
vn 0.1170052 -0.202948 -0.9721738
vn 0.1170052 -0.202948 -0.9721738
vn 0.1170052 0.2029479 -0.9721738
vn 0.1170052 0.2029479 -0.9721738
vn 0.1170052 0.2029479 -0.9721738
vn 0.1637219 0 -0.9865065
vn 0.1637219 0 -0.9865065
vn 0.1637219 0 -0.9865065
vn 0.1637219 0 -0.9865065
vn -0.1637219 0 -0.9865065
vn -0.1637219 0 -0.9865065
vn -0.1637219 0 -0.9865065
vn -0.1637219 0 -0.9865065
vn -0.1170052 -0.202948 -0.9721738
vn -0.1170052 -0.202948 -0.9721738
vn -0.1170052 -0.202948 -0.9721738
vn -0.1170052 0.202948 -0.9721738
vn -0.1170052 0.202948 -0.9721738
vn -0.1170052 0.202948 -0.9721738
vn -0.0007144103 -0.001187899 -0.999999
vn -0.0007144103 -0.001187899 -0.999999
vn -0.0007144103 -0.001187899 -0.999999
vn -0.0007144103 -0.001187899 -0.999999
vn 0.0007144106 -0.0011879 -0.999999
vn 0.0007144106 -0.0011879 -0.999999
vn -0.001085229 0 -0.9999994
vn -0.001085229 0 -0.9999994
vn 0.0007144114 0.001187901 -0.999999
vn 0.0007144114 0.001187901 -0.999999
vn 0.0007144114 0.001187901 -0.999999
vn 0.0007144114 0.001187901 -0.999999
vn 0.5000215 0.866013 0
vn 0.5000215 0.866013 0
vn 0.5000215 0.866013 0
vn 0.5000215 0.866013 0
vn 1 0 0
vn 1 0 0
vn 1 0 0
vn 1 0 0
vn 1 0 0
vn 0.5000215 -0.8660131 0
vn 0.5000215 -0.8660131 0
vn 0.5000215 -0.8660131 0
vn 0.5000215 -0.8660131 0
vn -0.5000216 -0.8660129 0
vn -0.5000216 -0.8660129 0
vn -0.5000216 -0.8660129 0
vn -0.5000216 -0.8660129 0
vn -1 0 0
vn -1 0 0
vn -1 0 0
vn -1 0 0
vn -1 0 0
vn -0.5000215 0.866013 0
vn -0.5000215 0.866013 0
vn -0.5000215 0.866013 0
vn -0.5000215 0.866013 0
g vShield_0
f 3/3/3 2/2/2 1/1/1
f 6/6/6 5/5/5 4/4/4
f 9/9/9 8/8/8 7/7/7
f 10/10/10 9/9/9 7/7/7
f 13/13/13 12/12/12 11/11/11
f 14/14/14 13/13/13 11/11/11
f 17/17/17 16/16/16 15/15/15
f 20/20/20 19/19/19 18/18/18
f 23/23/23 22/22/22 21/21/21
f 24/24/24 23/23/23 21/21/21
f 21/21/21 22/22/22 25/25/25
f 22/22/22 26/26/26 25/25/25
f 27/27/27 23/23/23 24/24/24
f 28/28/28 27/27/27 24/24/24
f 25/25/25 26/26/26 29/29/29
f 26/26/26 30/30/30 29/29/29
f 29/29/29 30/30/30 31/31/31
f 30/30/30 32/32/32 31/31/31
f 32/32/32 27/27/27 28/28/28
f 31/31/31 32/32/32 28/28/28
f 35/35/35 34/34/34 33/33/33
f 38/38/38 37/37/37 36/36/36
f 41/41/41 40/40/40 39/39/39
f 42/42/42 41/41/41 39/39/39
f 45/45/45 44/44/44 43/43/43
f 46/46/46 45/45/45 43/43/43
f 49/49/49 48/48/48 47/47/47
f 52/52/52 51/51/51 50/50/50
f 55/55/55 54/54/54 53/53/53
f 56/56/56 55/55/55 53/53/53
f 53/53/53 54/54/54 57/57/57
f 54/54/54 58/58/58 57/57/57
f 59/59/59 55/55/55 56/56/56
f 60/60/60 59/59/59 56/56/56
f 57/57/57 58/58/58 61/61/61
f 58/58/58 62/62/62 61/61/61
f 61/61/61 62/62/62 63/63/63
f 62/62/62 64/64/64 63/63/63
f 64/64/64 59/59/59 60/60/60
f 63/63/63 64/64/64 60/60/60
f 67/67/67 66/66/66 65/65/65
f 68/68/68 67/67/67 65/65/65
f 71/71/71 70/70/70 69/69/69
f 73/73/73 71/71/71 72/72/72
f 76/76/76 75/75/75 74/74/74
f 77/77/77 76/76/76 74/74/74
f 80/80/80 79/79/79 78/78/78
f 81/81/81 80/80/80 78/78/78
f 84/84/84 83/83/83 82/82/82
f 86/86/86 84/84/84 85/85/85
f 89/89/89 88/88/88 87/87/87
f 90/90/90 89/89/89 87/87/87
