g _A___N
v 0.1082284 0.6875479 2.326708
v 0.1585993 0.6676571 2.230227
v 0.1111605 0.6676571 2.327873
v 0.1555993 0.6875479 2.229107
v 0.1951094 0.6676571 2.114916
v 0.1917247 0.6875479 2.11415
v 0.2069682 0.6875479 2.042782
v 0.2104758 0.6676571 2.043108
v 0.146313 0.6875479 2.038296
v 0.1431454 0.6875479 1.975609
v 0.1425741 0.6676571 2.037841
v 0.129548 0.6676571 2.09868
v 0.1332142 0.6875479 2.09955
v 0.1005656 0.6676571 2.203155
v 0.1042111 0.6875479 2.204494
v 0.05787873 0.6875479 2.296837
v 0.05434616 0.6676571 2.295812
v 0.1394271 0.6676571 1.975639
v 0.1294968 0.6676571 1.924315
v 0.1334357 0.6875479 1.924611
v 0.1010481 0.6875479 1.864372
v 0.09704585 0.6676571 1.864433
v 0 0.6676571 1.814217
v 0 0.6875479 1.810905
v 0.03091197 0.6676571 2.343984
v 0.03673065 0.6875479 2.3441
v 0.009838629 0.6875479 2.389609
v 0.007848232 0.6676571 2.385952
v 0.08216995 0.6875479 1.767418
v 0 0.6875479 1.746889
v 0.1293336 0.6875479 1.803472
v 0.1701807 0.6875479 1.859749
v 0.1996012 0.6875479 1.944097
v 0.07186268 0.6875479 2.382225
v 0.1111605 0.6676571 2.327873
v 0.07599694 0.6676571 2.381538
v 0.04759764 0.6875479 2.460866
v 0.3782261 0.6875479 2.492336
v 0.3785619 0.6875479 2.351555
v 0.3820983 0.6676571 2.346066
v 0.04879949 0.6676571 2.462331
v 0.3819304 0.6676571 2.496685
v 0.1115596 0.6875479 3.129662
v 0.01259896 0.6875479 3.129662
v 0 0.6875479 3.129662
v 0 0.6875479 2.472274
v 0 0.6875479 2.406038
v 0 0.6676571 2.394127
v -0.04759764 0.6875479 2.460866
v -0.00983863 0.6875479 2.389609
v -0.07186268 0.6875479 2.382225
v -0.03673065 0.6875479 2.3441
v -0.03091197 0.6676571 2.343984
v -0.007848233 0.6676571 2.385952
v -0.05787873 0.6875479 2.296837
v -0.05434616 0.6676571 2.295812
v -0.1005656 0.6676571 2.203155
v -0.1042111 0.6875479 2.204494
v -0.1332142 0.6875479 2.09955
v -0.129548 0.6676571 2.09868
v -0.146313 0.6875479 2.038296
v -0.1425741 0.6676571 2.037841
v -0.1431454 0.6875479 1.975609
v -0.1394271 0.6676571 1.975639
v -0.1294968 0.6676571 1.924315
v -0.1334357 0.6875479 1.924611
v -0.1010481 0.6875479 1.864372
v -0.09704585 0.6676571 1.864433
v -0.08216995 0.6875479 1.767418
v -0.1293336 0.6875479 1.803472
v -0.1701807 0.6875479 1.859749
v -0.1996012 0.6875479 1.944097
v -0.1739682 0.6676571 1.859639
v -0.2031536 0.6676571 1.944027
v -0.2069682 0.6875479 2.042782
v -0.2104758 0.6676571 2.043108
v -0.1951094 0.6676571 2.114916
v -0.1917247 0.6875479 2.11415
v -0.1555993 0.6875479 2.229107
v -0.1585993 0.6676571 2.230227
v -0.1082284 0.6875479 2.326708
v -0.1111605 0.6676571 2.327873
v -0.07599694 0.6676571 2.381538
v -0.3782261 0.6875479 2.492336
v -0.3785619 0.6875479 2.351555
v -0.3819304 0.6676571 2.496685
v -0.3820983 0.6676571 2.346066
v -0.04879949 0.6676571 2.462331
v -0.1115596 0.6875479 3.129662
v -0.1127053 0.6676571 3.129662
v -0.01259896 0.6875479 3.129662
v 0.1996012 0.6875479 1.944097
v 0.1739682 0.6676571 1.859639
v 0.2031536 0.6676571 1.944027
v 0.1701807 0.6875479 1.859749
v 0.2069682 0.6875479 2.042782
v 0.2104758 0.6676571 2.043108
v 0.1293336 0.6875479 1.803472
v 0.1322035 0.6676571 1.802105
v 0.08216995 0.6875479 1.767418
v 0.08427622 0.6676571 1.765093
v 0 0.6875479 1.746889
v 0 0.6676571 1.743954
v 0 0.6676571 1.814217
v 0.09704585 0.6676571 1.864433
v 0.1294968 0.6676571 1.924315
v 0.1394271 0.6676571 1.975639
v 0.1425741 0.6676571 2.037841
v 0.1951094 0.6676571 2.114916
v 0.129548 0.6676571 2.09868
v 0.1005656 0.6676571 2.203155
v 0.1585993 0.6676571 2.230227
v 0.05434616 0.6676571 2.295812
v 0.1111605 0.6676571 2.327873
v 0.03091197 0.6676571 2.343984
v 0.07599694 0.6676571 2.381538
v 0.007848232 0.6676571 2.385952
v 0.04879949 0.6676571 2.462331
v 0.3819304 0.6676571 2.496685
v 0.3820983 0.6676571 2.346066
v 0.3785619 0.6875479 2.351555
v 0.3782261 0.6875479 2.492336
v 0.07186268 0.6875479 2.382225
v 0 0.6676571 2.467419
v 0 0.6676571 3.129662
v 0.01259896 0.6676571 3.129662
v 0.1127053 0.6676571 3.129662
v 0.1115596 0.6875479 3.129662
v 0.04759764 0.6875479 2.460866
v 0.01259896 0.6875479 3.129662
v 0 0.6875479 3.129662
v 0 0.6676571 2.394127
v -0.01259896 0.6676571 3.129662
v -0.01259896 0.6875479 3.129662
v -0.1127053 0.6676571 3.129662
v -0.04879949 0.6676571 2.462331
v -0.1115596 0.6875479 3.129662
v -0.007848233 0.6676571 2.385952
v -0.07599694 0.6676571 2.381538
v -0.03091197 0.6676571 2.343984
v -0.1111605 0.6676571 2.327873
v -0.05434616 0.6676571 2.295812
v -0.1585993 0.6676571 2.230227
v -0.1005656 0.6676571 2.203155
v -0.1951094 0.6676571 2.114916
v -0.129548 0.6676571 2.09868
v -0.1425741 0.6676571 2.037841
v -0.2104758 0.6676571 2.043108
v -0.1394271 0.6676571 1.975639
v -0.2031536 0.6676571 1.944027
v -0.1294968 0.6676571 1.924315
v -0.1739682 0.6676571 1.859639
v -0.09704585 0.6676571 1.864433
v -0.1322035 0.6676571 1.802105
v -0.1293336 0.6875479 1.803472
v -0.08216995 0.6875479 1.767418
v -0.08427622 0.6676571 1.765093
v -0.1701807 0.6875479 1.859749
v -0.3819304 0.6676571 2.496685
v -0.3820983 0.6676571 2.346066
v -0.07186268 0.6875479 2.382225
vt 0.634696 -0.409611
vt 0.696585 -0.347128
vt 0.63518 -0.411988
vt 0.696652 -0.344106
vt 0.743803 -0.270567
vt 0.743859 -0.266986
vt 0.763761 -0.219122
vt 0.763659 -0.222905
vt 0.684461 -0.216023
vt 0.680305 -0.173958
vt 0.675798 -0.219309
vt 0.658949 -0.259701
vt 0.667344 -0.257113
vt 0.62144 -0.329083
vt 0.62942 -0.32753
vt 0.568788 -0.38951
vt 0.561576 -0.390634
vt 0.671712 -0.177999
vt 0.65885 -0.143904
vt 0.667598 -0.139729
vt 0.625232 -0.0992583
vt 0.616838 -0.104087
vt 0.491168 -0.0705492
vt 0.493021 -0.063181
vt 0.531208 -0.42265
vt 0.541099 -0.421249
vt 0.505879 -0.451818
vt 0.501311 -0.45055
vt 0.60053 -0.0341879
vt 0.493024 -0.0202306
vt 0.66221 -0.0584703
vt 0.715621 -0.0962944
vt 0.754099 -0.152916
vt 0.587102 -0.446887
vt 0.63518 -0.411988
vt 0.589634 -0.447649
vt 0.555334 -0.499726
vt 0.987743 -0.520941
vt 0.988086 -0.42646
vt 0.985705 -0.424241
vt 0.554395 -0.501373
vt 0.985588 -0.524283
vt 0.639186 -0.94959
vt 0.509474 -0.949751
vt 0.492952 -0.949772
vt 0.492986 -0.507382
vt 0.49299 -0.462856
vt 0.491136 -0.455985
vt 0.430615 -0.499699
vt 0.480101 -0.451809
vt 0.398823 -0.446815
vt 0.444872 -0.421205
vt 0.451059 -0.422613
vt 0.480961 -0.450543
vt 0.417166 -0.389424
vt 0.420675 -0.390554
vt 0.360744 -0.328884
vt 0.356461 -0.327321
vt 0.318472 -0.256765
vt 0.323174 -0.259369
vt 0.30132 -0.21559
vt 0.306293 -0.218896
vt 0.305493 -0.173484
vt 0.310396 -0.177546
vt 0.323292 -0.143447
vt 0.318236 -0.139248
vt 0.360691 -0.0988595
vt 0.365391 -0.103712
vt 0.385442 -0.0338182
vt 0.323648 -0.057915
vt 0.270096 -0.0956181
vt 0.231488 -0.152218
vt 0.265626 -0.100377
vt 0.227719 -0.156422
vt 0.221782 -0.218515
vt 0.218171 -0.2223
vt 0.238087 -0.270085
vt 0.241744 -0.266501
vt 0.289078 -0.343814
vt 0.285432 -0.346837
vt 0.351163 -0.409468
vt 0.346966 -0.411845
vt 0.392577 -0.447574
vt -0.00336227 -0.520799
vt -0.00369269 -0.426015
vt -0.00491473 -0.524153
vt -0.00501543 -0.42379
vt 0.427844 -0.501347
vt 0.346579 -0.949954
vt 0.344746 -0.945979
vt 0.476428 -0.949792
vt 0.754099 -0.152916
vt 0.716377 -0.101054
vt 0.754154 -0.157117
vt 0.715621 -0.0962944
vt 0.763761 -0.219122
vt 0.763659 -0.222905
vt 0.66221 -0.0584703
vt 0.662329 -0.062784
vt 0.60053 -0.0341879
vt 0.600296 -0.0381149
vt 0.493024 -0.0202306
vt 0.491172 -0.0238926
vt 0.491168 -0.0705492
vt 0.616838 -0.104087
vt 0.65885 -0.143904
vt 0.671712 -0.177999
vt 0.675798 -0.219309
vt 0.743803 -0.270567
vt 0.658949 -0.259701
vt 0.62144 -0.329083
vt 0.696585 -0.347128
vt 0.561576 -0.390634
vt 0.63518 -0.411988
vt 0.531208 -0.42265
vt 0.589634 -0.447649
vt 0.501311 -0.45055
vt 0.554395 -0.501373
vt 0.985588 -0.524283
vt 0.985705 -0.424241
vt 0.988086 -0.42646
vt 0.987743 -0.520941
vt 0.587102 -0.446887
vt 0.491132 -0.504744
vt 0.491096 -0.945799
vt 0.507447 -0.945779
vt 0.637308 -0.945619
vt 0.639186 -0.94959
vt 0.555334 -0.499726
vt 0.509474 -0.949751
vt 0.492952 -0.949772
vt 0.491136 -0.455985
vt 0.474743 -0.945819
vt 0.476428 -0.949792
vt 0.344746 -0.945979
vt 0.427844 -0.501347
vt 0.346579 -0.949954
vt 0.480961 -0.450543
vt 0.392577 -0.447574
vt 0.451059 -0.422613
vt 0.346966 -0.411845
vt 0.420675 -0.390554
vt 0.285432 -0.346837
vt 0.360744 -0.328884
vt 0.238087 -0.270085
vt 0.323174 -0.259369
vt 0.306293 -0.218896
vt 0.218171 -0.2223
vt 0.310396 -0.177546
vt 0.227719 -0.156422
vt 0.323292 -0.143447
vt 0.265626 -0.100377
vt 0.365391 -0.103712
vt 0.319819 -0.062227
vt 0.323648 -0.057915
vt 0.385442 -0.0338182
vt 0.381968 -0.0377423
vt 0.270096 -0.0956181
vt -0.00491473 -0.524153
vt -0.00501543 -0.42379
vt 0.398823 -0.446815
vn 0.571137 0.7608538 0.3080653
vn 0.6990048 -0.6498262 0.2985265
vn 0.8884225 0.1562505 0.4316146
vn 0.6059682 0.7632496 0.2241709
vn 0.7387763 -0.6451102 0.1950446
vn 0.3991552 0.9108401 0.1050973
vn 0.7244234 0.687574 0.0495238
vn 0.5906177 -0.8059333 0.04052591
vn -0.6306318 0.7720982 -0.07853561
vn -0.718856 0.6897274 0.08672927
vn -0.7665496 -0.6415786 -0.02790335
vn -0.8743377 -0.4397125 -0.2053932
vn -0.7308727 0.6564371 -0.1868568
vn -0.8087599 -0.4992293 -0.31093
vn -0.4669316 0.8658462 -0.1796808
vn -0.6452042 0.6973909 -0.3120214
vn -0.5358495 -0.8019863 -0.2639759
vn -0.5927122 -0.8021912 0.0719826
vn -0.8117236 -0.507288 0.2894195
vn -0.4729195 0.8649702 0.1678504
vn -0.4468132 0.7711093 0.4535949
vn -0.3163423 -0.8917636 0.3235509
vn 0 -0.7073154 0.706898
vn 0 0.9260386 0.3774288
vn -0.7786082 -0.4811109 -0.4028667
vn -0.4285021 0.8759381 -0.2216272
vn -0.5862431 0.710859 -0.3885854
vn -0.3811354 -0.8811225 -0.2799265
vn 0.3209239 0.7625655 -0.5616954
vn 0 0.5543138 -0.8323077
vn 0.5749927 0.6406564 -0.5088642
vn 0.4474593 0.8631203 -0.2341016
vn 0.6202694 0.7685121 -0.1570195
vn 0.2478987 0.9570586 -0.1502834
vn 0.4948631 -0.8062274 0.3242033
vn 0.1449187 -0.9851565 -0.09200607
vn 0.1243616 0.9844363 0.1241749
vn 0.2432768 0.7551725 0.6087124
vn 0.7069244 0.6071612 -0.3627852
vn 0.3549654 -0.2598902 -0.8980293
vn 0.2906311 -0.9123496 0.2883609
vn 0.730138 -0.5659217 0.3829243
vn 0.822578 0.4594434 0.3350778
vn 0 0.5547002 0.8320503
vn 0 0.7071068 0.7071068
vn 0 1 0
vn 0 0.9778484 -0.2093147
vn 0 -0.3996976 -0.916647
vn -0.1243616 0.9844363 0.1241749
vn 0.586243 0.7108589 -0.3885854
vn -0.2478987 0.9570586 -0.1502834
vn 0.428502 0.8759381 -0.2216272
vn 0.7786082 -0.481111 -0.4028667
vn 0.3811354 -0.8811225 -0.2799265
vn 0.6452043 0.6973909 -0.3120215
vn 0.5358493 -0.8019863 -0.2639759
vn 0.8087599 -0.4992293 -0.31093
vn 0.4669315 0.8658462 -0.1796808
vn 0.7308727 0.6564371 -0.1868568
vn 0.8743377 -0.4397125 -0.2053932
vn 0.6306318 0.7720982 -0.07853561
vn 0.7665496 -0.6415786 -0.02790335
vn 0.718856 0.6897274 0.08672927
vn 0.5927122 -0.8021913 0.07198258
vn 0.8117236 -0.507288 0.2894195
vn 0.4729195 0.8649702 0.1678504
vn 0.4468132 0.7711093 0.4535949
vn 0.3163423 -0.8917636 0.3235509
vn -0.3209239 0.7625654 -0.5616954
vn -0.5749928 0.6406564 -0.5088642
vn -0.4474593 0.8631203 -0.2341016
vn -0.6202694 0.7685121 -0.1570195
vn -0.7599633 -0.5147054 -0.3969058
vn -0.7532642 -0.6463481 -0.1217671
vn -0.7244234 0.687574 0.0495238
vn -0.5906177 -0.8059333 0.04052591
vn -0.7387763 -0.6451102 0.1950446
vn -0.3991552 0.9108401 0.1050973
vn -0.6059683 0.7632496 0.2241709
vn -0.6990049 -0.6498262 0.2985264
vn -0.571137 0.7608536 0.3080653
vn -0.6521047 -0.6509466 0.3886232
vn -0.1449187 -0.9851565 -0.09200609
vn -0.2432768 0.7551725 0.6087124
vn -0.7069244 0.6071613 -0.3627851
vn -0.730138 -0.5659217 0.3829243
vn -0.3549654 -0.2598903 -0.8980293
vn -0.290631 -0.9123496 0.2883609
vn -0.822578 0.4594434 0.3350778
vn -0.4235777 -0.4018162 0.8118656
vn 0 0.5547002 0.8320503
vn 0.6202694 0.7685121 -0.1570195
vn 0.7599633 -0.5147054 -0.3969058
vn 0.7532642 -0.6463481 -0.1217671
vn 0.4474593 0.8631203 -0.2341016
vn 0.7244234 0.687574 0.0495238
vn 0.5906177 -0.8059333 0.04052591
vn 0.5749927 0.6406564 -0.5088642
vn 0.603465 -0.4662302 -0.6468844
vn 0.3209239 0.7625655 -0.5616954
vn 0.2794846 -0.660953 -0.6964406
vn 0 0.5543138 -0.8323077
vn 0 -0.6664526 -0.7455473
vn 0 -0.7073154 0.706898
vn -0.3163423 -0.8917636 0.3235509
vn -0.8117236 -0.507288 0.2894195
vn -0.5927122 -0.8021912 0.0719826
vn -0.7665496 -0.6415786 -0.02790335
vn 0.7387763 -0.6451102 0.1950446
vn -0.8743377 -0.4397125 -0.2053932
vn -0.8087599 -0.4992293 -0.31093
vn 0.6990048 -0.6498262 0.2985265
vn -0.5358495 -0.8019863 -0.2639759
vn 0.4948631 -0.8062274 0.3242033
vn -0.7786082 -0.4811109 -0.4028667
vn 0.1449187 -0.9851565 -0.09200607
vn -0.3811354 -0.8811225 -0.2799265
vn 0.2906311 -0.9123496 0.2883609
vn 0.730138 -0.5659217 0.3829243
vn 0.3549654 -0.2598902 -0.8980293
vn 0.7069244 0.6071612 -0.3627852
vn 0.2432768 0.7551725 0.6087124
vn 0.2478987 0.9570586 -0.1502834
vn 0 -1 0
vn 0 -0.8944272 0.4472136
vn 0 -0.5547002 0.8320503
vn 0.4235777 -0.4018162 0.8118656
vn 0.822578 0.4594434 0.3350778
vn 0.1243616 0.9844363 0.1241749
vn 0 0.5547002 0.8320503
vn 0 0.7071068 0.7071068
vn 0 -0.3996976 -0.916647
vn 0 -0.5547002 0.8320503
vn 0 0.5547002 0.8320503
vn -0.4235777 -0.4018162 0.8118656
vn -0.290631 -0.9123496 0.2883609
vn -0.822578 0.4594434 0.3350778
vn 0.3811354 -0.8811225 -0.2799265
vn -0.1449187 -0.9851565 -0.09200609
vn 0.7786082 -0.481111 -0.4028667
vn -0.6521047 -0.6509466 0.3886232
vn 0.5358493 -0.8019863 -0.2639759
vn -0.6990049 -0.6498262 0.2985264
vn 0.8087599 -0.4992293 -0.31093
vn -0.7387763 -0.6451102 0.1950446
vn 0.8743377 -0.4397125 -0.2053932
vn 0.7665496 -0.6415786 -0.02790335
vn -0.5906177 -0.8059333 0.04052591
vn 0.5927122 -0.8021913 0.07198258
vn -0.7532642 -0.6463481 -0.1217671
vn 0.8117236 -0.507288 0.2894195
vn -0.7599633 -0.5147054 -0.3969058
vn 0.3163423 -0.8917636 0.3235509
vn -0.603465 -0.4662302 -0.6468844
vn -0.5749928 0.6406564 -0.5088642
vn -0.3209239 0.7625654 -0.5616954
vn -0.2794846 -0.660953 -0.6964406
vn -0.4474593 0.8631203 -0.2341016
vn -0.730138 -0.5659217 0.3829243
vn -0.3549654 -0.2598903 -0.8980293
vn -0.2478987 0.9570586 -0.1502834
g _A___N_0
f 3/3/3 2/2/2 1/1/1
f 4/4/4 1/1/1 2/2/2
f 2/2/2 5/5/5 4/4/4
f 6/6/6 4/4/4 5/5/5
f 6/6/6 5/5/5 7/7/7
f 8/8/8 7/7/7 5/5/5
f 6/6/6 7/7/7 9/9/9
f 7/7/7 10/10/10 9/9/9
f 9/9/9 10/10/10 11/11/11
f 11/11/11 12/12/12 9/9/9
f 13/13/13 9/9/9 12/12/12
f 6/6/6 9/9/9 13/13/13
f 12/12/12 14/14/14 13/13/13
f 15/15/15 13/13/13 14/14/14
f 6/6/6 15/15/15 4/4/4
f 6/6/6 13/13/13 15/15/15
f 15/15/15 14/14/14 16/16/16
f 4/4/4 16/16/16 1/1/1
f 4/4/4 15/15/15 16/16/16
f 17/17/17 16/16/16 14/14/14
f 18/18/18 11/11/11 10/10/10
f 18/18/18 10/10/10 19/19/19
f 20/20/20 19/19/19 10/10/10
f 20/20/20 21/21/21 19/19/19
f 22/22/22 19/19/19 21/21/21
f 22/22/22 21/21/21 23/23/23
f 24/24/24 23/23/23 21/21/21
f 17/17/17 25/25/25 16/16/16
f 26/26/26 16/16/16 25/25/25
f 26/26/26 25/25/25 27/27/27
f 28/28/28 27/27/27 25/25/25
f 29/29/29 24/24/24 21/21/21
f 30/30/30 24/24/24 29/29/29
f 29/29/29 21/21/21 31/31/31
f 31/31/31 21/21/21 32/32/32
f 32/32/32 21/21/21 20/20/20
f 32/32/32 20/20/20 33/33/33
f 33/33/33 20/20/20 10/10/10
f 7/7/7 33/33/33 10/10/10
f 34/34/34 26/26/26 27/27/27
f 1/1/1 26/26/26 34/34/34
f 1/1/1 34/34/34 35/35/35
f 36/36/36 35/35/35 34/34/34
f 1/1/1 16/16/16 26/26/26
f 37/37/37 34/34/34 27/27/27
f 38/38/38 34/34/34 37/37/37
f 38/38/38 39/39/39 34/34/34
f 34/34/34 39/39/39 40/40/40
f 38/38/38 37/37/37 41/41/41
f 38/38/38 41/41/41 42/42/42
f 37/37/37 44/44/44 43/43/43
f 37/37/37 45/45/45 44/44/44
f 37/37/37 46/46/46 45/45/45
f 37/37/37 47/47/47 46/46/46
f 37/37/37 27/27/27 47/47/47
f 27/27/27 48/48/48 47/47/47
f 27/27/27 28/28/28 48/48/48
f 49/49/49 46/46/46 47/47/47
f 49/49/49 45/45/45 46/46/46
f 49/49/49 47/47/47 50/50/50
f 50/50/50 47/47/47 48/48/48
f 49/49/49 50/50/50 51/51/51
f 51/51/51 50/50/50 52/52/52
f 52/52/52 50/50/50 53/53/53
f 54/54/54 53/53/53 50/50/50
f 50/50/50 48/48/48 54/54/54
f 52/52/52 53/53/53 55/55/55
f 56/56/56 55/55/55 53/53/53
f 56/56/56 57/57/57 55/55/55
f 58/58/58 55/55/55 57/57/57
f 58/58/58 57/57/57 59/59/59
f 60/60/60 59/59/59 57/57/57
f 59/59/59 60/60/60 61/61/61
f 62/62/62 61/61/61 60/60/60
f 61/61/61 62/62/62 63/63/63
f 64/64/64 63/63/63 62/62/62
f 64/64/64 65/65/65 63/63/63
f 66/66/66 63/63/63 65/65/65
f 66/66/66 65/65/65 67/67/67
f 68/68/68 67/67/67 65/65/65
f 68/68/68 23/23/23 67/67/67
f 24/24/24 67/67/67 23/23/23
f 69/69/69 67/67/67 24/24/24
f 30/30/30 69/69/69 24/24/24
f 69/69/69 70/70/70 67/67/67
f 70/70/70 71/71/71 67/67/67
f 71/71/71 66/66/66 67/67/67
f 71/71/71 72/72/72 66/66/66
f 72/72/72 63/63/63 66/66/66
f 71/71/71 73/73/73 72/72/72
f 74/74/74 72/72/72 73/73/73
f 72/72/72 74/74/74 75/75/75
f 75/75/75 63/63/63 72/72/72
f 76/76/76 75/75/75 74/74/74
f 76/76/76 77/77/77 75/75/75
f 78/78/78 75/75/75 77/77/77
f 78/78/78 77/77/77 79/79/79
f 80/80/80 79/79/79 77/77/77
f 79/79/79 80/80/80 81/81/81
f 82/82/82 81/81/81 80/80/80
f 81/81/81 82/82/82 51/51/51
f 83/83/83 51/51/51 82/82/82
f 78/78/78 61/61/61 75/75/75
f 75/75/75 61/61/61 63/63/63
f 78/78/78 59/59/59 61/61/61
f 78/78/78 79/79/79 58/58/58
f 78/78/78 58/58/58 59/59/59
f 79/79/79 81/81/81 55/55/55
f 79/79/79 55/55/55 58/58/58
f 81/81/81 51/51/51 52/52/52
f 81/81/81 52/52/52 55/55/55
f 84/84/84 49/49/49 51/51/51
f 84/84/84 51/51/51 85/85/85
f 85/85/85 86/86/86 84/84/84
f 85/85/85 87/87/87 86/86/86
f 51/51/51 87/87/87 85/85/85
f 84/84/84 86/86/86 88/88/88
f 84/84/84 88/88/88 49/49/49
f 49/49/49 88/88/88 89/89/89
f 90/90/90 89/89/89 88/88/88
f 49/49/49 89/89/89 91/91/91
f 49/49/49 91/91/91 45/45/45
f 94/94/94 93/93/93 92/92/92
f 95/95/95 92/92/92 93/93/93
f 92/92/92 96/96/96 94/94/94
f 97/97/97 94/94/94 96/96/96
f 95/95/95 93/93/93 98/98/98
f 99/99/99 98/98/98 93/93/93
f 98/98/98 99/99/99 100/100/100
f 101/101/101 100/100/100 99/99/99
f 100/100/100 101/101/101 102/102/102
f 103/103/103 102/102/102 101/101/101
f 103/103/103 101/101/101 104/104/104
f 101/101/101 105/105/105 104/104/104
f 101/101/101 99/99/99 105/105/105
f 99/99/99 93/93/93 105/105/105
f 93/93/93 106/106/106 105/105/105
f 93/93/93 94/94/94 106/106/106
f 106/106/106 94/94/94 107/107/107
f 107/107/107 94/94/94 97/97/97
f 107/107/107 97/97/97 108/108/108
f 108/108/108 97/97/97 109/109/109
f 108/108/108 109/109/109 110/110/110
f 109/109/109 111/111/111 110/110/110
f 109/109/109 112/112/112 111/111/111
f 112/112/112 113/113/113 111/111/111
f 112/112/112 114/114/114 113/113/113
f 114/114/114 115/115/115 113/113/113
f 114/114/114 116/116/116 115/115/115
f 115/115/115 116/116/116 117/117/117
f 118/118/118 117/117/117 116/116/116
f 116/116/116 119/119/119 118/118/118
f 116/116/116 120/120/120 119/119/119
f 121/121/121 119/119/119 120/120/120
f 121/121/121 122/122/122 119/119/119
f 123/123/123 120/120/120 116/116/116
f 117/117/117 118/118/118 124/124/124
f 118/118/118 125/125/125 124/124/124
f 118/118/118 126/126/126 125/125/125
f 118/118/118 127/127/127 126/126/126
f 127/127/127 118/118/118 128/128/128
f 129/129/129 128/128/128 118/118/118
f 127/127/127 130/130/130 126/126/126
f 127/127/127 128/128/128 130/130/130
f 126/126/126 131/131/131 125/125/125
f 126/126/126 130/130/130 131/131/131
f 117/117/117 124/124/124 132/132/132
f 133/133/133 125/125/125 131/131/131
f 133/133/133 131/131/131 134/134/134
f 135/135/135 133/133/133 134/134/134
f 136/136/136 133/133/133 135/135/135
f 136/136/136 125/125/125 133/133/133
f 136/136/136 124/124/124 125/125/125
f 135/135/135 134/134/134 137/137/137
f 138/138/138 124/124/124 136/136/136
f 138/138/138 132/132/132 124/124/124
f 136/136/136 139/139/139 138/138/138
f 140/140/140 138/138/138 139/139/139
f 141/141/141 140/140/140 139/139/139
f 141/141/141 142/142/142 140/140/140
f 143/143/143 142/142/142 141/141/141
f 143/143/143 144/144/144 142/142/142
f 145/145/145 144/144/144 143/143/143
f 145/145/145 146/146/146 144/144/144
f 147/147/147 146/146/146 145/145/145
f 147/147/147 145/145/145 148/148/148
f 149/149/149 147/147/147 148/148/148
f 149/149/149 148/148/148 150/150/150
f 151/151/151 149/149/149 150/150/150
f 152/152/152 151/151/151 150/150/150
f 152/152/152 153/153/153 151/151/151
f 154/154/154 153/153/153 152/152/152
f 154/154/154 152/152/152 155/155/155
f 155/155/155 156/156/156 154/154/154
f 157/157/157 154/154/154 156/156/156
f 157/157/157 153/153/153 154/154/154
f 156/156/156 102/102/102 157/157/157
f 103/103/103 157/157/157 102/102/102
f 158/158/158 155/155/155 152/152/152
f 103/103/103 104/104/104 157/157/157
f 157/157/157 104/104/104 153/153/153
f 139/139/139 136/136/136 159/159/159
f 139/139/139 159/159/159 160/160/160
f 161/161/161 139/139/139 160/160/160
